<?xml version="1.0" encoding="UTF-8" standalone="no"?>
<svg
   xmlns:dc="http://purl.org/dc/elements/1.1/"
   xmlns:cc="http://creativecommons.org/ns#"
   xmlns:rdf="http://www.w3.org/1999/02/22-rdf-syntax-ns#"
   xmlns:svg="http://www.w3.org/2000/svg"
   xmlns="http://www.w3.org/2000/svg"
   xmlns:xlink="http://www.w3.org/1999/xlink"
   width="112"
   height="80"
   id="svg4729"
   version="1.1">
  <defs
     id="defs4731">
    <linearGradient
       id="linearGradient5063">
      <stop
         offset="0"
         style="stop-color:#ffffff;stop-opacity:1;"
         id="stop5055" />
      <stop
         id="stop5057"
         style="stop-color:#ffffff;stop-opacity:0.23529412;"
         offset="0.19461967" />
      <stop
         offset="0.95056331"
         style="stop-color:#ffffff;stop-opacity:0.15686275;"
         id="stop5059" />
      <stop
         offset="1"
         style="stop-color:#ffffff;stop-opacity:0.39215687;"
         id="stop5061" />
    </linearGradient>
    <linearGradient
       id="linearGradient3924-4">
      <stop
         id="stop3926-8"
         style="stop-color:#ffffff;stop-opacity:1;"
         offset="0" />
      <stop
         offset="0.06316455"
         style="stop-color:#ffffff;stop-opacity:0.23529412;"
         id="stop3928-5" />
      <stop
         id="stop3930-6-4"
         style="stop-color:#ffffff;stop-opacity:0.15686275;"
         offset="0.95056331" />
      <stop
         id="stop3932-25"
         style="stop-color:#ffffff;stop-opacity:0.39215687;"
         offset="1" />
    </linearGradient>
    <filter
       style="color-interpolation-filters:sRGB"
       id="filter1523"
       x="-0.057365853"
       width="1.1147317"
       y="-0.294"
       height="1.5880001">
      <feGaussianBlur
         stdDeviation="0.98"
         id="feGaussianBlur1525" />
    </filter>
    <linearGradient
       xlink:href="#linearGradient3924-4"
       id="linearGradient1529"
       gradientUnits="userSpaceOnUse"
       gradientTransform="matrix(2.6263817,0,0,0.43555485,57.05491,13.104455)"
       x1="14.447668"
       y1="6.6480026"
       x2="14.447668"
       y2="24.964697" />
    <filter
       height="1.0441815"
       y="-0.022090762"
       width="1.052541"
       x="-0.026270478"
       id="filter4818"
       style="color-interpolation-filters:sRGB">
      <feGaussianBlur
         id="feGaussianBlur4820"
         stdDeviation="0.4050032" />
    </filter>
    <linearGradient
       gradientTransform="matrix(0.98039219,0,0,0.9,-352.08409,-344.00433)"
       gradientUnits="userSpaceOnUse"
       y2="473.27878"
       x2="438.65228"
       y1="466.57907"
       x1="438.65228"
       id="linearGradient5053"
       xlink:href="#linearGradient5063" />
  </defs>
  <metadata
     id="metadata4734">
    <rdf:RDF>
      <cc:Work
         rdf:about="">
        <dc:format>image/svg+xml</dc:format>
        <dc:type
           rdf:resource="http://purl.org/dc/dcmitype/StillImage" />
        <dc:title></dc:title>
      </cc:Work>
    </rdf:RDF>
  </metadata>
  <path
     style="color:#000000;display:inline;overflow:visible;visibility:visible;opacity:1;vector-effect:none;fill:#4d4d4d;fill-opacity:1;fill-rule:nonzero;stroke:none;stroke-width:0.97582185;stroke-linecap:butt;stroke-linejoin:miter;stroke-miterlimit:4;stroke-dasharray:none;stroke-dashoffset:0;stroke-opacity:0.50216447;marker:none;enable-background:accumulate"
     d="M 80,80 V 76.56912 C 80,75.55867 79.37995,75 78.29324,75 H 30.67845 C 29.59174,75 29,75.61529 29,76.62574 V 80"
     id="rect857" />
  <path
     style="color:#000000;display:inline;overflow:visible;visibility:visible;opacity:0.74500002;vector-effect:none;fill:none;fill-opacity:1;fill-rule:nonzero;stroke:#000000;stroke-width:0.9999218;stroke-linecap:butt;stroke-linejoin:miter;stroke-miterlimit:4;stroke-dasharray:none;stroke-dashoffset:0;stroke-opacity:1;marker:none;enable-background:accumulate"
     d="m 80.5,79.9834 v -3.48276 c 0,-1.10801 -0.89199,-2 -2,-2 h -48 c -1.10801,0 -2,0.89199 -2,2 v 3.48276"
     id="rect857-2" />
  <path
     style="color:#000000;display:inline;overflow:visible;visibility:visible;opacity:0.15;fill:#000000;fill-opacity:1;fill-rule:nonzero;stroke:none;stroke-width:0.9999218;stroke-linecap:butt;stroke-linejoin:miter;stroke-miterlimit:4;stroke-dasharray:none;stroke-dashoffset:0;stroke-opacity:1;marker:none;filter:url(#filter4818);enable-background:accumulate"
     d="m 72.50003,15.499995 c -1.108,0 -2,0.892 -2,2 v 7 c 0,1.108 0.892,2 2,2 h 33 c 1.108,0 2,-0.892 2,-2 v -7 c 0,-1.108 -0.892,-2 -2,-2 z"
     id="path1027" />
  <path
     id="rect845"
     d="m 72.5,14.500065 c -1.108,0 -2,0.892 -2,2 v 7 c 0,1.108 0.892,2 2,2 h 33 c 1.108,0 2,-0.892 2,-2 v -7 c 0,-1.108 -0.892,-2 -2,-2 z"
     style="color:#000000;display:inline;overflow:visible;visibility:visible;opacity:0.74500002;vector-effect:none;fill:none;fill-opacity:1;fill-rule:nonzero;stroke:#000000;stroke-width:1;stroke-linecap:butt;stroke-linejoin:miter;stroke-miterlimit:4;stroke-dasharray:none;stroke-dashoffset:0;stroke-opacity:1;marker:none;enable-background:accumulate" />
  <path
     style="color:#000000;display:inline;overflow:visible;visibility:visible;opacity:1;vector-effect:none;fill:#4d4d4d;fill-opacity:1;fill-rule:nonzero;stroke:none;stroke-width:0.97582185;stroke-linecap:butt;stroke-linejoin:miter;stroke-miterlimit:4;stroke-dasharray:none;stroke-dashoffset:0;stroke-opacity:0.50216447;marker:none;enable-background:accumulate"
     id="rect845-6"
     d="m 72.49907,15.013015 c -0.83195,0 -1.48632,0.65437 -1.48632,1.48632 v 7 c 0,0.83196 0.65437,1.48633 1.48632,1.48633 h 33 c 0.83196,0 1.48633,-0.65437 1.48633,-1.48633 v -7 c 0,-0.83195 -0.65437,-1.48632 -1.48633,-1.48632 z" />
  <path
     id="rect1527"
     d="m 72.52489,15.500015 h 32.93803 c 0.554,0 1.03707,0.446 1.03707,1 v 7.00001 c 0,0.554 -0.446,1 -1,1 h -33 c -0.554,0 -1,-0.446 -1,-1 v -7.00001 c 0,-0.554 0.4709,-1 1.0249,-1 z"
     style="opacity:0.15;fill:none;stroke:url(#linearGradient1529);stroke-width:0.99999988;stroke-linecap:round;stroke-linejoin:round;stroke-miterlimit:4;stroke-dasharray:none;stroke-dashoffset:0;stroke-opacity:1" />
  <path
     id="rect1343"
     d="m 35.5,71.001 c -0.83101,0 -1.5,0.66899 -1.5,1.5 v 5 c 0,0.83101 0.66899,1.5 1.5,1.5 h 5 c 0.83101,0 1.5,-0.66899 1.5,-1.5 v -5 c 0,-0.83101 -0.66899,-1.5 -1.5,-1.5 z m 11,0 c -0.83101,0 -1.5,0.66899 -1.5,1.5 v 5 c 0,0.83101 0.66899,1.5 1.5,1.5 h 5 c 0.83101,0 1.5,-0.66899 1.5,-1.5 v -5 c 0,-0.83101 -0.66899,-1.5 -1.5,-1.5 z m 11,0 c -0.83101,0 -1.5,0.66899 -1.5,1.5 v 5 c 0,0.83101 0.66899,1.5 1.5,1.5 h 5 c 0.83101,0 1.5,-0.66899 1.5,-1.5 v -5 c 0,-0.83101 -0.66899,-1.5 -1.5,-1.5 z m 11,0 c -0.83101,0 -1.5,0.66899 -1.5,1.5 v 5 c 0,0.83101 0.66899,1.5 1.5,1.5 h 5 c 0.83101,0 1.5,-0.66899 1.5,-1.5 v -5 c 0,-0.83101 -0.66899,-1.5 -1.5,-1.5 z"
     style="opacity:0.1;vector-effect:none;fill:#000000;fill-opacity:1;stroke:none;stroke-width:1;stroke-linecap:round;stroke-linejoin:round;stroke-miterlimit:4;stroke-dasharray:none;stroke-dashoffset:0;stroke-opacity:1;marker:none;paint-order:normal;filter:url(#filter1523)" />
  <path
     style="color:#000000;display:inline;overflow:visible;visibility:visible;opacity:0.15;vector-effect:none;fill:none;fill-opacity:1;fill-rule:nonzero;stroke:url(#linearGradient5053);stroke-width:1;stroke-linecap:butt;stroke-linejoin:miter;stroke-miterlimit:4;stroke-dasharray:none;stroke-dashoffset:0;stroke-opacity:1;marker:none;enable-background:accumulate"
     d="M 79.50002,80 V 76.91221 C 79.50002,76.0028 78.89212,75.5 77.82672,75.5 H 31.14556 c -1.06541,0 -1.64555,0.55376 -1.64555,1.46317 V 80"
     id="rect857-0" />
  <rect
     style="color:#000000;display:inline;overflow:visible;visibility:visible;opacity:0.15;vector-effect:none;fill:none;fill-opacity:1;fill-rule:nonzero;stroke:#000000;stroke-width:0.9999218;stroke-linecap:butt;stroke-linejoin:miter;stroke-miterlimit:4;stroke-dasharray:none;stroke-dashoffset:0;stroke-opacity:1;marker:none;enable-background:accumulate"
     id="rect863"
     width="7.0000782"
     height="7.0000782"
     x="34.499958"
     y="70.499954"
     rx="1.0000445"
     ry="1.0000445" />
  <rect
     ry="1.0000445"
     rx="1.0000445"
     y="70.499954"
     x="45.499958"
     height="7.0000782"
     width="7.0000782"
     id="rect869"
     style="color:#000000;display:inline;overflow:visible;visibility:visible;opacity:0.15;vector-effect:none;fill:none;fill-opacity:1;fill-rule:nonzero;stroke:#000000;stroke-width:0.9999218;stroke-linecap:butt;stroke-linejoin:miter;stroke-miterlimit:4;stroke-dasharray:none;stroke-dashoffset:0;stroke-opacity:1;marker:none;enable-background:accumulate" />
  <rect
     style="color:#000000;display:inline;overflow:visible;visibility:visible;opacity:0.15;vector-effect:none;fill:none;fill-opacity:1;fill-rule:nonzero;stroke:#000000;stroke-width:0.9999218;stroke-linecap:butt;stroke-linejoin:miter;stroke-miterlimit:4;stroke-dasharray:none;stroke-dashoffset:0;stroke-opacity:1;marker:none;enable-background:accumulate"
     id="rect875"
     width="7.0000782"
     height="7.0000782"
     x="67.499992"
     y="70.499954"
     rx="1.0000445"
     ry="1.0000445" />
  <rect
     ry="1.0000445"
     rx="1.0000445"
     y="70.499954"
     x="56.499989"
     height="7.0000782"
     width="7.0000782"
     id="rect881"
     style="color:#000000;display:inline;overflow:visible;visibility:visible;opacity:0.15;vector-effect:none;fill:none;fill-opacity:1;fill-rule:nonzero;stroke:#000000;stroke-width:0.9999218;stroke-linecap:butt;stroke-linejoin:miter;stroke-miterlimit:4;stroke-dasharray:none;stroke-dashoffset:0;stroke-opacity:1;marker:none;enable-background:accumulate" />
  <rect
     style="color:#000000;display:inline;overflow:visible;visibility:visible;opacity:1;vector-effect:none;fill:#fafafa;fill-opacity:1;fill-rule:nonzero;stroke:none;stroke-width:0.85706621;stroke-linecap:butt;stroke-linejoin:miter;stroke-miterlimit:4;stroke-dasharray:none;stroke-dashoffset:0;stroke-opacity:1;marker:none;enable-background:accumulate"
     id="rect863-1"
     width="6"
     height="6"
     x="34.999989"
     y="71.000015"
     rx="0.85717142"
     ry="0.85717142" />
  <rect
     style="color:#000000;display:inline;overflow:visible;visibility:visible;opacity:1;vector-effect:none;fill:#fafafa;fill-opacity:1;fill-rule:nonzero;stroke:none;stroke-width:0.85706621;stroke-linecap:butt;stroke-linejoin:miter;stroke-miterlimit:4;stroke-dasharray:none;stroke-dashoffset:0;stroke-opacity:1;marker:none;enable-background:accumulate"
     id="rect863-1-8"
     width="6"
     height="6"
     x="45.999989"
     y="71.000015"
     rx="0.85717142"
     ry="0.85717142" />
  <rect
     style="color:#000000;display:inline;overflow:visible;visibility:visible;opacity:1;vector-effect:none;fill:#fafafa;fill-opacity:1;fill-rule:nonzero;stroke:none;stroke-width:0.85706621;stroke-linecap:butt;stroke-linejoin:miter;stroke-miterlimit:4;stroke-dasharray:none;stroke-dashoffset:0;stroke-opacity:1;marker:none;enable-background:accumulate"
     id="rect863-1-4"
     width="6"
     height="6"
     x="56.999989"
     y="71.000015"
     rx="0.85717142"
     ry="0.85717142" />
  <rect
     style="color:#000000;display:inline;overflow:visible;visibility:visible;opacity:1;vector-effect:none;fill:#fafafa;fill-opacity:1;fill-rule:nonzero;stroke:none;stroke-width:0.85706621;stroke-linecap:butt;stroke-linejoin:miter;stroke-miterlimit:4;stroke-dasharray:none;stroke-dashoffset:0;stroke-opacity:1;marker:none;enable-background:accumulate"
     id="rect863-1-8-5"
     width="6"
     height="6"
     x="67.999992"
     y="71.000015"
     rx="0.85717142"
     ry="0.85717142" />
  <g
     id="g5339"
     transform="matrix(0.4137931,0,0,0.4137931,-27.03689,89.90069)"
     style="color:#bebebe;fill:#abacae;stroke-width:2.41666675">
    <path
       id="path5337"
       style="overflow:visible;isolation:auto;mix-blend-mode:normal;fill:#abacae;stroke-width:2.41666675;marker:none"
       overflow="visible"
       d="m 301,-210.01 a 1,1 0 0 0 -1,1 v 0.01 c -1.764,0.456 -2.998,2.168 -3,3.99 0,0 0,5 -1.66,5.622 -0.016,0.01 -0.023,0.03 -0.04,0.043 a 0.726,0.726 0 0 0 -0.161,0.175 c -0.018,0.027 -0.039,0.048 -0.053,0.077 a 0.738,0.738 0 0 0 -0.086,0.334 c 0,0.415 0.335,0.75 0.75,0.75 h 10.5 c 0.416,0 0.75,-0.335 0.75,-0.75 a 0.738,0.738 0 0 0 -0.086,-0.334 c -0.014,-0.03 -0.035,-0.05 -0.052,-0.077 a 0.725,0.725 0 0 0 -0.162,-0.175 c -0.016,-0.012 -0.023,-0.033 -0.04,-0.043 -1.66,-0.622 -1.66,-5.622 -1.66,-5.622 -0.002,-1.822 -1.235,-3.534 -3,-3.99 v -0.01 a 1,1 0 0 0 -1,-1 z m -1.933,13 a 2,2 0 0 0 1.933,1.5 2,2 0 0 0 1.936,-1.5 z" />
  </g>
</svg>
