<?xml version="1.0" encoding="UTF-8" standalone="no"?>
<svg
   xmlns:dc="http://purl.org/dc/elements/1.1/"
   xmlns:cc="http://creativecommons.org/ns#"
   xmlns:rdf="http://www.w3.org/1999/02/22-rdf-syntax-ns#"
   xmlns:svg="http://www.w3.org/2000/svg"
   xmlns="http://www.w3.org/2000/svg"
   xmlns:xlink="http://www.w3.org/1999/xlink"
   version="1.1"
   id="svg4729"
   height="80"
   width="112">
  <defs
     id="defs4731">
    <linearGradient
       id="linearGradient5063">
      <stop
         id="stop5055"
         style="stop-color:#ffffff;stop-opacity:1;"
         offset="0" />
      <stop
         offset="0.19461967"
         style="stop-color:#ffffff;stop-opacity:0.23529412;"
         id="stop5057" />
      <stop
         id="stop5059"
         style="stop-color:#ffffff;stop-opacity:0.15686275;"
         offset="0.95056331" />
      <stop
         id="stop5061"
         style="stop-color:#ffffff;stop-opacity:0.39215687;"
         offset="1" />
    </linearGradient>
    <linearGradient
       id="linearGradient3924-4">
      <stop
         offset="0"
         style="stop-color:#ffffff;stop-opacity:1;"
         id="stop3926-8" />
      <stop
         id="stop3928-5"
         style="stop-color:#ffffff;stop-opacity:0.23529412;"
         offset="0.06316455" />
      <stop
         offset="0.95056331"
         style="stop-color:#ffffff;stop-opacity:0.15686275;"
         id="stop3930-6-4" />
      <stop
         offset="1"
         style="stop-color:#ffffff;stop-opacity:0.39215687;"
         id="stop3932-25" />
    </linearGradient>
    <filter
       height="1.5880001"
       y="-0.294"
       width="1.1147317"
       x="-0.057365853"
       id="filter1523"
       style="color-interpolation-filters:sRGB">
      <feGaussianBlur
         id="feGaussianBlur1525"
         stdDeviation="0.98" />
    </filter>
    <linearGradient
       y2="93.893044"
       x2="14.447668"
       y1="6.6480026"
       x1="14.447668"
       gradientTransform="matrix(2.6263817,0,0,0.43555485,57.05491,13.104455)"
       gradientUnits="userSpaceOnUse"
       id="linearGradient1529"
       xlink:href="#linearGradient3924-4" />
    <filter
       style="color-interpolation-filters:sRGB"
       id="filter4733-6"
       x="-0.07082355"
       width="1.1416471"
       y="-0.10319996"
       height="1.2063999">
      <feGaussianBlur
         stdDeviation="1.5050028"
         id="feGaussianBlur4735-2" />
    </filter>
    <filter
       style="color-interpolation-filters:sRGB"
       id="filter4700-6"
       x="-0.03035295"
       width="1.0607059"
       y="-0.044228554"
       height="1.0884571">
      <feGaussianBlur
         stdDeviation="0.6450012"
         id="feGaussianBlur4702-1" />
    </filter>
    <linearGradient
       xlink:href="#linearGradient3924-4"
       id="linearGradient4798"
       gradientUnits="userSpaceOnUse"
       gradientTransform="matrix(2.6263817,0,0,0.43555485,351.27065,412.22031)"
       x1="14.066927"
       y1="6.6480942"
       x2="14.066927"
       y2="80.117599" />
    <filter
       style="color-interpolation-filters:sRGB"
       id="filter4818"
       x="-0.026270478"
       width="1.052541"
       y="-0.022090762"
       height="1.0441815">
      <feGaussianBlur
         stdDeviation="0.4050032"
         id="feGaussianBlur4820" />
    </filter>
    <linearGradient
       xlink:href="#linearGradient5063"
       id="linearGradient5053"
       x1="438.65228"
       y1="466.57907"
       x2="438.65228"
       y2="473.27878"
       gradientUnits="userSpaceOnUse"
       gradientTransform="matrix(0.98039219,0,0,0.9,-352.08409,-344.00433)" />
    <filter
       style="color-interpolation-filters:sRGB"
       id="filter4733-3"
       x="-0.07082355"
       width="1.1416471"
       y="-0.10319996"
       height="1.2063999">
      <feGaussianBlur
         stdDeviation="1.5050028"
         id="feGaussianBlur4735-6" />
    </filter>
    <filter
       style="color-interpolation-filters:sRGB"
       id="filter4700-7"
       x="-0.03035295"
       width="1.0607059"
       y="-0.044228554"
       height="1.0884571">
      <feGaussianBlur
         stdDeviation="0.6450012"
         id="feGaussianBlur4702-5" />
    </filter>
    <linearGradient
       xlink:href="#linearGradient3924-4"
       id="linearGradient923"
       gradientUnits="userSpaceOnUse"
       gradientTransform="matrix(2.6263817,0,0,0.43555485,351.27065,412.22031)"
       x1="14.066927"
       y1="6.6480942"
       x2="14.066927"
       y2="80.117599" />
    <filter
       height="1.0441815"
       y="-0.022090763"
       width="1.052541"
       x="-0.026270477"
       id="filter4818-3"
       style="color-interpolation-filters:sRGB">
      <feGaussianBlur
         id="feGaussianBlur4820-6"
         stdDeviation="0.4050032" />
    </filter>
    <linearGradient
       xlink:href="#linearGradient3924-4"
       id="linearGradient1529-7"
       gradientUnits="userSpaceOnUse"
       gradientTransform="matrix(2.6263817,0,0,0.43555485,57.05491,13.10443)"
       x1="14.447668"
       y1="6.6480026"
       x2="14.447668"
       y2="93.893044" />
    <filter
       style="color-interpolation-filters:sRGB"
       id="filter1523-2"
       x="-0.057365853"
       width="1.1147317"
       y="-0.294"
       height="1.5880001">
      <feGaussianBlur
         stdDeviation="0.98"
         id="feGaussianBlur1525-9" />
    </filter>
  </defs>
  <metadata
     id="metadata4734">
    <rdf:RDF>
      <cc:Work
         rdf:about="">
        <dc:format>image/svg+xml</dc:format>
        <dc:type
           rdf:resource="http://purl.org/dc/dcmitype/StillImage" />
        <dc:title></dc:title>
      </cc:Work>
    </rdf:RDF>
  </metadata>
  <path
     id="rect857"
     d="M 80,80 V 76.56912 C 80,75.55867 79.37995,75 78.29324,75 H 30.67845 C 29.59174,75 29,75.61529 29,76.62574 V 80"
     style="color:#000000;display:inline;overflow:visible;visibility:visible;opacity:1;vector-effect:none;fill:#4d4d4d;fill-opacity:1;fill-rule:nonzero;stroke:none;stroke-width:0.97582185;stroke-linecap:butt;stroke-linejoin:miter;stroke-miterlimit:4;stroke-dasharray:none;stroke-dashoffset:0;stroke-opacity:0.50216447;marker:none;enable-background:accumulate" />
  <path
     id="rect857-2"
     d="m 80.5,79.9834 v -3.48276 c 0,-1.10801 -0.89199,-2 -2,-2 h -48 c -1.10801,0 -2,0.89199 -2,2 v 3.48276"
     style="color:#000000;display:inline;overflow:visible;visibility:visible;opacity:0.74500002;vector-effect:none;fill:none;fill-opacity:1;fill-rule:nonzero;stroke:#000000;stroke-width:0.9999218;stroke-linecap:butt;stroke-linejoin:miter;stroke-miterlimit:4;stroke-dasharray:none;stroke-dashoffset:0;stroke-opacity:1;marker:none;enable-background:accumulate" />
  <path
     id="path1027"
     d="m 97.50003,12.499355 c -0.25562,0 -0.51116,0.0991 -0.70703,0.295 l -2.29297,2.70564 h -22 c -1.108,0 -2,0.892 -2,2 v 37 c 0,1.108 0.892,2 2,2 h 33 c 1.108,0 2,-0.892 2,-2 v -37 c 0,-1.108 -0.892,-2 -2,-2 h -5 l -2.29297,-2.70564 c -0.19587,-0.19587 -0.45141,-0.295 -0.70703,-0.295 z"
     style="color:#000000;display:inline;overflow:visible;visibility:visible;opacity:0.15;fill:#000000;fill-opacity:1;fill-rule:nonzero;stroke:none;stroke-width:0.9999218;stroke-linecap:butt;stroke-linejoin:miter;stroke-miterlimit:4;stroke-dasharray:none;stroke-dashoffset:0;stroke-opacity:1;marker:none;filter:url(#filter4818);enable-background:accumulate" />
  <path
     style="color:#000000;display:inline;overflow:visible;visibility:visible;opacity:0.74500002;vector-effect:none;fill:none;fill-opacity:1;fill-rule:nonzero;stroke:#000000;stroke-width:1;stroke-linecap:butt;stroke-linejoin:miter;stroke-miterlimit:4;stroke-dasharray:none;stroke-dashoffset:0;stroke-opacity:1;marker:none;enable-background:accumulate"
     d="m 97.5,11.499425 c -0.25562,0 -0.51116,0.0991 -0.70703,0.295 L 94.5,14.500065 h -22 c -1.108,0 -2,0.892 -2,2 v 37 c 0,1.108 0.892,2 2,2 h 33 c 1.108,0 2,-0.892 2,-2 v -37 c 0,-1.108 -0.892,-2 -2,-2 h -5 l -2.29297,-2.70564 c -0.19587,-0.19587 -0.45141,-0.295 -0.70703,-0.295 z"
     id="rect845" />
  <path
     d="m 97.49907,12.013015 c -0.12134,0 -0.24148,0.046 -0.33984,0.14257 l -2.26758,2.67579 a 0.51438915,0.51438915 0 0 1 -0.39258,0.18164 h -22 c -0.83195,0 -1.48632,0.65437 -1.48632,1.48632 v 37 c 0,0.83196 0.65437,1.48633 1.48632,1.48633 h 33 c 0.83196,0 1.48633,-0.65437 1.48633,-1.48633 v -37 c 0,-0.83195 -0.65437,-1.48632 -1.48633,-1.48632 h -5 a 0.51438915,0.51438915 0 0 1 -0.39257,-0.18164 l -2.26758,-2.67579 c -0.0984,-0.0966 -0.21854,-0.14257 -0.33985,-0.14257 z"
     id="rect845-6"
     style="color:#000000;display:inline;overflow:visible;visibility:visible;opacity:1;vector-effect:none;fill:#4d4d4d;fill-opacity:1;fill-rule:nonzero;stroke:none;stroke-width:0.97582185;stroke-linecap:butt;stroke-linejoin:miter;stroke-miterlimit:4;stroke-dasharray:none;stroke-dashoffset:0;stroke-opacity:0.50216447;marker:none;enable-background:accumulate" />
  <path
     style="opacity:0.15;fill:none;stroke:url(#linearGradient1529);stroke-width:0.99999988;stroke-linecap:round;stroke-linejoin:round;stroke-miterlimit:4;stroke-dasharray:none;stroke-dashoffset:0;stroke-opacity:1"
     d="M 72.52489,15.500015 H 95 l 2.5,-2.99999 2.5,2.99999 h 5.46292 c 0.554,0 1.03707,0.446 1.03707,1 v 37.00001 c 0,0.554 -0.446,1 -1,1 h -33 c -0.554,0 -1,-0.446 -1,-1 v -37.00001 c 0,-0.554 0.4709,-1 1.0249,-1 z"
     id="rect1527" />
  <path
     style="opacity:0.1;vector-effect:none;fill:#000000;fill-opacity:1;stroke:none;stroke-width:1;stroke-linecap:round;stroke-linejoin:round;stroke-miterlimit:4;stroke-dasharray:none;stroke-dashoffset:0;stroke-opacity:1;marker:none;paint-order:normal;filter:url(#filter1523)"
     d="m 35.5,71.001 c -0.83101,0 -1.5,0.66899 -1.5,1.5 v 5 c 0,0.83101 0.66899,1.5 1.5,1.5 h 5 c 0.83101,0 1.5,-0.66899 1.5,-1.5 v -5 c 0,-0.83101 -0.66899,-1.5 -1.5,-1.5 z m 11,0 c -0.83101,0 -1.5,0.66899 -1.5,1.5 v 5 c 0,0.83101 0.66899,1.5 1.5,1.5 h 5 c 0.83101,0 1.5,-0.66899 1.5,-1.5 v -5 c 0,-0.83101 -0.66899,-1.5 -1.5,-1.5 z m 11,0 c -0.83101,0 -1.5,0.66899 -1.5,1.5 v 5 c 0,0.83101 0.66899,1.5 1.5,1.5 h 5 c 0.83101,0 1.5,-0.66899 1.5,-1.5 v -5 c 0,-0.83101 -0.66899,-1.5 -1.5,-1.5 z m 11,0 c -0.83101,0 -1.5,0.66899 -1.5,1.5 v 5 c 0,0.83101 0.66899,1.5 1.5,1.5 h 5 c 0.83101,0 1.5,-0.66899 1.5,-1.5 v -5 c 0,-0.83101 -0.66899,-1.5 -1.5,-1.5 z"
     id="rect1343" />
  <path
     id="rect857-0"
     d="M 79.50002,80 V 76.91221 C 79.50002,76.0028 78.89212,75.5 77.82672,75.5 H 31.14556 c -1.06541,0 -1.64555,0.55376 -1.64555,1.46317 V 80"
     style="color:#000000;display:inline;overflow:visible;visibility:visible;opacity:0.15;vector-effect:none;fill:none;fill-opacity:1;fill-rule:nonzero;stroke:url(#linearGradient5053);stroke-width:1;stroke-linecap:butt;stroke-linejoin:miter;stroke-miterlimit:4;stroke-dasharray:none;stroke-dashoffset:0;stroke-opacity:1;marker:none;enable-background:accumulate" />
  <rect
     ry="1.0000445"
     rx="1.0000445"
     y="70.499954"
     x="34.499958"
     height="7.0000782"
     width="7.0000782"
     id="rect863"
     style="color:#000000;display:inline;overflow:visible;visibility:visible;opacity:0.15;vector-effect:none;fill:none;fill-opacity:1;fill-rule:nonzero;stroke:#000000;stroke-width:0.9999218;stroke-linecap:butt;stroke-linejoin:miter;stroke-miterlimit:4;stroke-dasharray:none;stroke-dashoffset:0;stroke-opacity:1;marker:none;enable-background:accumulate" />
  <rect
     style="color:#000000;display:inline;overflow:visible;visibility:visible;opacity:0.15;vector-effect:none;fill:none;fill-opacity:1;fill-rule:nonzero;stroke:#000000;stroke-width:0.9999218;stroke-linecap:butt;stroke-linejoin:miter;stroke-miterlimit:4;stroke-dasharray:none;stroke-dashoffset:0;stroke-opacity:1;marker:none;enable-background:accumulate"
     id="rect869"
     width="7.0000782"
     height="7.0000782"
     x="45.499958"
     y="70.499954"
     rx="1.0000445"
     ry="1.0000445" />
  <rect
     ry="1.0000445"
     rx="1.0000445"
     y="70.499954"
     x="67.499992"
     height="7.0000782"
     width="7.0000782"
     id="rect875"
     style="color:#000000;display:inline;overflow:visible;visibility:visible;opacity:0.15;vector-effect:none;fill:none;fill-opacity:1;fill-rule:nonzero;stroke:#000000;stroke-width:0.9999218;stroke-linecap:butt;stroke-linejoin:miter;stroke-miterlimit:4;stroke-dasharray:none;stroke-dashoffset:0;stroke-opacity:1;marker:none;enable-background:accumulate" />
  <rect
     style="color:#000000;display:inline;overflow:visible;visibility:visible;opacity:0.15;vector-effect:none;fill:none;fill-opacity:1;fill-rule:nonzero;stroke:#000000;stroke-width:0.9999218;stroke-linecap:butt;stroke-linejoin:miter;stroke-miterlimit:4;stroke-dasharray:none;stroke-dashoffset:0;stroke-opacity:1;marker:none;enable-background:accumulate"
     id="rect881"
     width="7.0000782"
     height="7.0000782"
     x="56.499989"
     y="70.499954"
     rx="1.0000445"
     ry="1.0000445" />
  <rect
     ry="0.85717142"
     rx="0.85717142"
     y="71.000015"
     x="34.999989"
     height="6"
     width="6"
     id="rect863-1"
     style="color:#000000;display:inline;overflow:visible;visibility:visible;opacity:1;vector-effect:none;fill:#fafafa;fill-opacity:1;fill-rule:nonzero;stroke:none;stroke-width:0.85706621;stroke-linecap:butt;stroke-linejoin:miter;stroke-miterlimit:4;stroke-dasharray:none;stroke-dashoffset:0;stroke-opacity:1;marker:none;enable-background:accumulate" />
  <rect
     ry="0.85717142"
     rx="0.85717142"
     y="71.000015"
     x="45.999989"
     height="6"
     width="6"
     id="rect863-1-8"
     style="color:#000000;display:inline;overflow:visible;visibility:visible;opacity:1;vector-effect:none;fill:#fafafa;fill-opacity:1;fill-rule:nonzero;stroke:none;stroke-width:0.85706621;stroke-linecap:butt;stroke-linejoin:miter;stroke-miterlimit:4;stroke-dasharray:none;stroke-dashoffset:0;stroke-opacity:1;marker:none;enable-background:accumulate" />
  <rect
     ry="0.85717142"
     rx="0.85717142"
     y="71.000015"
     x="56.999989"
     height="6"
     width="6"
     id="rect863-1-4"
     style="color:#000000;display:inline;overflow:visible;visibility:visible;opacity:1;vector-effect:none;fill:#fafafa;fill-opacity:1;fill-rule:nonzero;stroke:none;stroke-width:0.85706621;stroke-linecap:butt;stroke-linejoin:miter;stroke-miterlimit:4;stroke-dasharray:none;stroke-dashoffset:0;stroke-opacity:1;marker:none;enable-background:accumulate" />
  <rect
     ry="0.85717142"
     rx="0.85717142"
     y="71.000015"
     x="67.999992"
     height="6"
     width="6"
     id="rect863-1-8-5"
     style="color:#000000;display:inline;overflow:visible;visibility:visible;opacity:1;vector-effect:none;fill:#fafafa;fill-opacity:1;fill-rule:nonzero;stroke:none;stroke-width:0.85706621;stroke-linecap:butt;stroke-linejoin:miter;stroke-miterlimit:4;stroke-dasharray:none;stroke-dashoffset:0;stroke-opacity:1;marker:none;enable-background:accumulate" />
  <g
     style="color:#bebebe;fill:#abacae;stroke-width:2.41666675"
     transform="matrix(0.4137931,0,0,0.4137931,-27.03689,89.90069)"
     id="g5339">
    <path
       d="m 301,-210.01 a 1,1 0 0 0 -1,1 v 0.01 c -1.764,0.456 -2.998,2.168 -3,3.99 0,0 0,5 -1.66,5.622 -0.016,0.01 -0.023,0.03 -0.04,0.043 a 0.726,0.726 0 0 0 -0.161,0.175 c -0.018,0.027 -0.039,0.048 -0.053,0.077 a 0.738,0.738 0 0 0 -0.086,0.334 c 0,0.415 0.335,0.75 0.75,0.75 h 10.5 c 0.416,0 0.75,-0.335 0.75,-0.75 a 0.738,0.738 0 0 0 -0.086,-0.334 c -0.014,-0.03 -0.035,-0.05 -0.052,-0.077 a 0.725,0.725 0 0 0 -0.162,-0.175 c -0.016,-0.012 -0.023,-0.033 -0.04,-0.043 -1.66,-0.622 -1.66,-5.622 -1.66,-5.622 -0.002,-1.822 -1.235,-3.534 -3,-3.99 v -0.01 a 1,1 0 0 0 -1,-1 z m -1.933,13 a 2,2 0 0 0 1.933,1.5 2,2 0 0 0 1.936,-1.5 z"
       overflow="visible"
       style="overflow:visible;isolation:auto;mix-blend-mode:normal;fill:#abacae;stroke-width:2.41666675;marker:none"
       id="path5337" />
  </g>
  <path
     id="rect4584"
     d="M 77 19 C 75.892 19 75 19.892 75 21 L 75 23 C 75 24.108 75.892 25 77 25 L 79 25 C 80.108 25 81 24.108 81 23 L 81 21 C 81 19.892 80.108 19 79 19 L 77 19 z M 83.5 20 C 83.223 20 83 20.223 83 20.5 C 83 20.777 83.223 21 83.5 21 L 99.5 21 C 99.777 21 100 20.777 100 20.5 C 100 20.223 99.777 20 99.5 20 L 83.5 20 z M 83.5 23 C 83.222996 23 83 23.222996 83 23.5 C 83 23.777004 83.222996 24 83.5 24 L 94.5 24 C 94.777004 24 95 23.777004 95 23.5 C 95 23.222996 94.777004 23 94.5 23 L 83.5 23 z M 77 28 C 75.892 28 75 28.892 75 30 L 75 32 C 75 33.108 75.892 34 77 34 L 79 34 C 80.108 34 81 33.108 81 32 L 81 30 C 81 28.892 80.108 28 79 28 L 77 28 z M 83.5 29 C 83.223 29 83 29.223 83 29.5 C 83 29.777 83.223 30 83.5 30 L 93.5 30 C 93.777 30 94 29.777 94 29.5 C 94 29.223 93.777 29 93.5 29 L 83.5 29 z M 83.5 32 C 83.222996 32 83 32.222996 83 32.5 C 83 32.777004 83.222996 33 83.5 33 L 101.5 33 C 101.777 33 102 32.777004 102 32.5 C 102 32.222996 101.777 32 101.5 32 L 83.5 32 z M 77 37 C 75.892 37 75 37.892 75 39 L 75 41 C 75 42.108 75.892 43 77 43 L 79 43 C 80.108 43 81 42.108 81 41 L 81 39 C 81 37.892 80.108 37 79 37 L 77 37 z M 83.5 38 C 83.223 38 83 38.223 83 38.5 C 83 38.777 83.223 39 83.5 39 L 96.5 39 C 96.777 39 97 38.777 97 38.5 C 97 38.223 96.777 38 96.5 38 L 83.5 38 z M 83.5 41 C 83.222996 41 83 41.222996 83 41.5 C 83 41.777004 83.222996 42 83.5 42 L 89.5 42 C 89.777004 42 90 41.777004 90 41.5 C 90 41.222996 89.777004 41 89.5 41 L 83.5 41 z M 77 46 C 75.892 46 75 46.892 75 48 L 75 50 C 75 51.108 75.892 52 77 52 L 79 52 C 80.108 52 81 51.108 81 50 L 81 48 C 81 46.892 80.108 46 79 46 L 77 46 z M 83.5 47 C 83.223 47 83 47.223 83 47.5 C 83 47.777 83.223 48 83.5 48 L 99.5 48 C 99.777 48 100 47.777 100 47.5 C 100 47.223 99.777 47 99.5 47 L 83.5 47 z M 83.5 50 C 83.222996 50 83 50.222996 83 50.5 C 83 50.777004 83.222996 51 83.5 51 L 103.5 51 C 103.777 51 104 50.777004 104 50.5 C 104 50.222996 103.777 50 103.5 50 L 83.5 50 z "
     style="color:#000000;display:inline;overflow:visible;visibility:visible;opacity:1;vector-effect:none;fill:#abacae;fill-opacity:1;fill-rule:nonzero;stroke:none;stroke-width:1;stroke-linecap:butt;stroke-linejoin:miter;stroke-miterlimit:4;stroke-dasharray:none;stroke-dashoffset:0;stroke-opacity:1;marker:none;enable-background:accumulate" />
</svg>
