<?xml version="1.0" encoding="UTF-8" standalone="no"?>
<svg
   xmlns:dc="http://purl.org/dc/elements/1.1/"
   xmlns:cc="http://creativecommons.org/ns#"
   xmlns:rdf="http://www.w3.org/1999/02/22-rdf-syntax-ns#"
   xmlns:svg="http://www.w3.org/2000/svg"
   xmlns="http://www.w3.org/2000/svg"
   xmlns:xlink="http://www.w3.org/1999/xlink"
   xmlns:sodipodi="http://sodipodi.sourceforge.net/DTD/sodipodi-0.dtd"
   xmlns:inkscape="http://www.inkscape.org/namespaces/inkscape"
   width="112"
   height="80"
   id="svg4729"
   version="1.1"
   sodipodi:docname="sounds.svg"
   inkscape:version="0.92.5 (2060ec1f9f, 2020-04-08)">
  <sodipodi:namedview
     pagecolor="#ffffff"
     bordercolor="#666666"
     borderopacity="1"
     objecttolerance="10"
     gridtolerance="10"
     guidetolerance="10"
     inkscape:pageopacity="0"
     inkscape:pageshadow="2"
     inkscape:window-width="3200"
     inkscape:window-height="1678"
     id="namedview42"
     showgrid="false"
     inkscape:zoom="2.95"
     inkscape:cx="66.169492"
     inkscape:cy="36.779661"
     inkscape:window-x="0"
     inkscape:window-y="60"
     inkscape:window-maximized="1"
     inkscape:current-layer="svg4729" />
  <defs
     id="defs4731">
    <linearGradient
       xlink:href="#linearGradient3924-4"
       id="linearGradient9678"
       gradientUnits="userSpaceOnUse"
       gradientTransform="matrix(2.6263817,0,0,0.43555485,351.27065,412.22031)"
       x1="14.066927"
       y1="6.6480942"
       x2="14.066927"
       y2="80.117599" />
    <linearGradient
       id="linearGradient3924-4">
      <stop
         id="stop3926-8"
         style="stop-color:#ffffff;stop-opacity:1;"
         offset="0" />
      <stop
         offset="0.06316455"
         style="stop-color:#ffffff;stop-opacity:0.23529412;"
         id="stop3928-5" />
      <stop
         id="stop3930-6-4"
         style="stop-color:#ffffff;stop-opacity:0.15686275;"
         offset="0.95056331" />
      <stop
         id="stop3932-25"
         style="stop-color:#ffffff;stop-opacity:0.39215687;"
         offset="1" />
    </linearGradient>
    <filter
       style="color-interpolation-filters:sRGB"
       id="filter1523"
       x="-0.057365853"
       width="1.1147317"
       y="-0.294"
       height="1.5880001">
      <feGaussianBlur
         stdDeviation="0.98"
         id="feGaussianBlur1525" />
    </filter>
    <linearGradient
       xlink:href="#linearGradient3924-4"
       id="linearGradient1529"
       gradientUnits="userSpaceOnUse"
       gradientTransform="matrix(2.6263817,0,0,0.43555485,57.05491,13.10443)"
       x1="14.447668"
       y1="6.6480026"
       x2="14.447668"
       y2="24.827114" />
    <filter
       height="1.0884571"
       y="-0.044228553"
       width="1.0607059"
       x="-0.03035295"
       id="filter4700"
       style="color-interpolation-filters:sRGB">
      <feGaussianBlur
         id="feGaussianBlur4702"
         stdDeviation="0.6450012" />
    </filter>
    <filter
       height="1.2063999"
       y="-0.10319996"
       width="1.1416471"
       x="-0.07082355"
       id="filter4733"
       style="color-interpolation-filters:sRGB">
      <feGaussianBlur
         id="feGaussianBlur4735"
         stdDeviation="1.5050028" />
    </filter>
    <filter
       height="1.2063999"
       y="-0.10319996"
       width="1.1416471"
       x="-0.07082355"
       id="filter4733-6"
       style="color-interpolation-filters:sRGB">
      <feGaussianBlur
         id="feGaussianBlur4735-2"
         stdDeviation="1.5050028" />
    </filter>
    <filter
       height="1.0884571"
       y="-0.044228554"
       width="1.0607059"
       x="-0.03035295"
       id="filter4700-6"
       style="color-interpolation-filters:sRGB">
      <feGaussianBlur
         id="feGaussianBlur4702-1"
         stdDeviation="0.6450012" />
    </filter>
    <linearGradient
       y2="80.117599"
       x2="14.066927"
       y1="6.6480942"
       x1="14.066927"
       gradientTransform="matrix(2.6263817,0,0,0.43555485,351.27065,412.22031)"
       gradientUnits="userSpaceOnUse"
       id="linearGradient4798"
       xlink:href="#linearGradient3924-4" />
    <filter
       height="1.0441815"
       y="-0.022090762"
       width="1.052541"
       x="-0.026270478"
       id="filter4818"
       style="color-interpolation-filters:sRGB">
      <feGaussianBlur
         id="feGaussianBlur4820"
         stdDeviation="0.4050032" />
    </filter>
  </defs>
  <metadata
     id="metadata4734">
    <rdf:RDF>
      <cc:Work
         rdf:about="">
        <dc:format>image/svg+xml</dc:format>
        <dc:type
           rdf:resource="http://purl.org/dc/dcmitype/StillImage" />
        <dc:title />
      </cc:Work>
    </rdf:RDF>
  </metadata>
  <path
     style="color:#000000;display:inline;overflow:visible;visibility:visible;opacity:0.95;fill:#fafafa;fill-opacity:1;fill-rule:nonzero;stroke:none;stroke-width:0.94573361;stroke-linecap:butt;stroke-linejoin:miter;stroke-miterlimit:4;stroke-dasharray:none;stroke-dashoffset:0;stroke-opacity:1;marker:none;enable-background:accumulate"
     d="M 80,80 V 76.8239 C 80,75.81345 79.12517,75 78.03846,75 H 30.96154 C 29.87483,75 29,75.81345 29,76.8239 V 80"
     id="rect857" />
  <path
     style="color:#000000;display:inline;overflow:visible;visibility:visible;opacity:0.15;vector-effect:none;fill:none;fill-opacity:1;fill-rule:nonzero;stroke:#000000;stroke-width:0.9999218;stroke-linecap:butt;stroke-linejoin:miter;stroke-miterlimit:4;stroke-dasharray:none;stroke-dashoffset:0;stroke-opacity:1;marker:none;enable-background:accumulate"
     d="m 80.5,79.9834 v -3.48276 c 0,-1.10801 -0.89199,-2 -2,-2 h -48 c -1.10801,0 -2,0.89199 -2,2 v 3.48276"
     id="rect857-2" />
  <path
     id="rect1343"
     d="m 35.5,71.001 c -0.83101,0 -1.5,0.66899 -1.5,1.5 v 5 c 0,0.83101 0.66899,1.5 1.5,1.5 h 5 c 0.83101,0 1.5,-0.66899 1.5,-1.5 v -5 c 0,-0.83101 -0.66899,-1.5 -1.5,-1.5 z m 11,0 c -0.83101,0 -1.5,0.66899 -1.5,1.5 v 5 c 0,0.83101 0.66899,1.5 1.5,1.5 h 5 c 0.83101,0 1.5,-0.66899 1.5,-1.5 v -5 c 0,-0.83101 -0.66899,-1.5 -1.5,-1.5 z m 11,0 c -0.83101,0 -1.5,0.66899 -1.5,1.5 v 5 c 0,0.83101 0.66899,1.5 1.5,1.5 h 5 c 0.83101,0 1.5,-0.66899 1.5,-1.5 v -5 c 0,-0.83101 -0.66899,-1.5 -1.5,-1.5 z m 11,0 c -0.83101,0 -1.5,0.66899 -1.5,1.5 v 5 c 0,0.83101 0.66899,1.5 1.5,1.5 h 5 c 0.83101,0 1.5,-0.66899 1.5,-1.5 v -5 c 0,-0.83101 -0.66899,-1.5 -1.5,-1.5 z"
     style="opacity:0.1;vector-effect:none;fill:#000000;fill-opacity:1;stroke:none;stroke-width:1;stroke-linecap:round;stroke-linejoin:round;stroke-miterlimit:4;stroke-dasharray:none;stroke-dashoffset:0;stroke-opacity:1;marker:none;paint-order:normal;filter:url(#filter1523)" />
  <rect
     style="color:#000000;display:inline;overflow:visible;visibility:visible;opacity:0.15;vector-effect:none;fill:none;fill-opacity:1;fill-rule:nonzero;stroke:#000000;stroke-width:0.9999218;stroke-linecap:butt;stroke-linejoin:miter;stroke-miterlimit:4;stroke-dasharray:none;stroke-dashoffset:0;stroke-opacity:1;marker:none;enable-background:accumulate"
     id="rect863"
     width="7.0000782"
     height="7.0000782"
     x="34.499958"
     y="70.499954"
     rx="1.0000445"
     ry="1.0000445" />
  <rect
     ry="1.0000445"
     rx="1.0000445"
     y="70.499954"
     x="45.499958"
     height="7.0000782"
     width="7.0000782"
     id="rect869"
     style="color:#000000;display:inline;overflow:visible;visibility:visible;opacity:0.15;vector-effect:none;fill:none;fill-opacity:1;fill-rule:nonzero;stroke:#000000;stroke-width:0.9999218;stroke-linecap:butt;stroke-linejoin:miter;stroke-miterlimit:4;stroke-dasharray:none;stroke-dashoffset:0;stroke-opacity:1;marker:none;enable-background:accumulate" />
  <rect
     style="color:#000000;display:inline;overflow:visible;visibility:visible;opacity:0.15;vector-effect:none;fill:none;fill-opacity:1;fill-rule:nonzero;stroke:#000000;stroke-width:0.9999218;stroke-linecap:butt;stroke-linejoin:miter;stroke-miterlimit:4;stroke-dasharray:none;stroke-dashoffset:0;stroke-opacity:1;marker:none;enable-background:accumulate"
     id="rect875"
     width="7.0000782"
     height="7.0000782"
     x="67.499992"
     y="70.499954"
     rx="1.0000445"
     ry="1.0000445" />
  <rect
     ry="1.0000445"
     rx="1.0000445"
     y="70.499954"
     x="56.499989"
     height="7.0000782"
     width="7.0000782"
     id="rect881"
     style="color:#000000;display:inline;overflow:visible;visibility:visible;opacity:0.15;vector-effect:none;fill:none;fill-opacity:1;fill-rule:nonzero;stroke:#000000;stroke-width:0.9999218;stroke-linecap:butt;stroke-linejoin:miter;stroke-miterlimit:4;stroke-dasharray:none;stroke-dashoffset:0;stroke-opacity:1;marker:none;enable-background:accumulate" />
  <rect
     style="color:#000000;display:inline;overflow:visible;visibility:visible;opacity:1;vector-effect:none;fill:#fafafa;fill-opacity:1;fill-rule:nonzero;stroke:none;stroke-width:0.85706621;stroke-linecap:butt;stroke-linejoin:miter;stroke-miterlimit:4;stroke-dasharray:none;stroke-dashoffset:0;stroke-opacity:1;marker:none;enable-background:accumulate"
     id="rect863-1"
     width="6"
     height="6"
     x="34.999989"
     y="71.000015"
     rx="0.85717142"
     ry="0.85717142" />
  <rect
     style="color:#000000;display:inline;overflow:visible;visibility:visible;opacity:1;vector-effect:none;fill:#fafafa;fill-opacity:1;fill-rule:nonzero;stroke:none;stroke-width:0.85706621;stroke-linecap:butt;stroke-linejoin:miter;stroke-miterlimit:4;stroke-dasharray:none;stroke-dashoffset:0;stroke-opacity:1;marker:none;enable-background:accumulate"
     id="rect863-1-8"
     width="6"
     height="6"
     x="45.999989"
     y="71.000015"
     rx="0.85717142"
     ry="0.85717142" />
  <rect
     style="color:#000000;display:inline;overflow:visible;visibility:visible;opacity:1;vector-effect:none;fill:#fafafa;fill-opacity:1;fill-rule:nonzero;stroke:none;stroke-width:0.85706621;stroke-linecap:butt;stroke-linejoin:miter;stroke-miterlimit:4;stroke-dasharray:none;stroke-dashoffset:0;stroke-opacity:1;marker:none;enable-background:accumulate"
     id="rect863-1-4"
     width="6"
     height="6"
     x="56.999989"
     y="71.000015"
     rx="0.85717142"
     ry="0.85717142" />
  <rect
     style="color:#000000;display:inline;overflow:visible;visibility:visible;opacity:1;vector-effect:none;fill:#fafafa;fill-opacity:1;fill-rule:nonzero;stroke:none;stroke-width:0.85706621;stroke-linecap:butt;stroke-linejoin:miter;stroke-miterlimit:4;stroke-dasharray:none;stroke-dashoffset:0;stroke-opacity:1;marker:none;enable-background:accumulate"
     id="rect863-1-8-5"
     width="6"
     height="6"
     x="67.999992"
     y="71.000015"
     rx="0.85717142"
     ry="0.85717142" />
  <g
     id="g5339"
     transform="matrix(0.4137931,0,0,0.4137931,-27.03689,89.90069)"
     style="color:#bebebe;fill:#abacae;stroke-width:2.41666675">
    <path
       id="path5337"
       style="overflow:visible;isolation:auto;mix-blend-mode:normal;fill:#abacae;stroke-width:2.41666675;marker:none"
       overflow="visible"
       d="m 301,-210.01 a 1,1 0 0 0 -1,1 v 0.01 c -1.764,0.456 -2.998,2.168 -3,3.99 0,0 0,5 -1.66,5.622 -0.016,0.01 -0.023,0.03 -0.04,0.043 a 0.726,0.726 0 0 0 -0.161,0.175 c -0.018,0.027 -0.039,0.048 -0.053,0.077 a 0.738,0.738 0 0 0 -0.086,0.334 c 0,0.415 0.335,0.75 0.75,0.75 h 10.5 c 0.416,0 0.75,-0.335 0.75,-0.75 a 0.738,0.738 0 0 0 -0.086,-0.334 c -0.014,-0.03 -0.035,-0.05 -0.052,-0.077 a 0.725,0.725 0 0 0 -0.162,-0.175 c -0.016,-0.012 -0.023,-0.033 -0.04,-0.043 -1.66,-0.622 -1.66,-5.622 -1.66,-5.622 -0.002,-1.822 -1.235,-3.534 -3,-3.99 v -0.01 a 1,1 0 0 0 -1,-1 z m -1.933,13 a 2,2 0 0 0 1.933,1.5 2,2 0 0 0 1.936,-1.5 z" />
  </g>
  <g
     id="g8"
     transform="matrix(2,0,0,2,-505,605.75)"
     style="color:#bebebe;opacity:1;vector-effect:none;fill:#838487;fill-opacity:1;stroke-width:0.5;stroke-linecap:butt;stroke-linejoin:miter;stroke-miterlimit:4;stroke-dasharray:none;stroke-dashoffset:0;stroke-opacity:1;marker:none">
    <path
       id="path2"
       style="overflow:visible;vector-effect:none;fill:#838487;fill-opacity:1;stroke-width:0.5;stroke-linecap:butt;stroke-linejoin:miter;stroke-miterlimit:4;stroke-dasharray:none;stroke-dashoffset:0;stroke-opacity:1;marker:none"
       overflow="visible"
       d="m 288,-283 c 0,-3.225 -1.204,-5.982 -2.946,-7.25 l -1.155,1.04 c 1.5,1.062 2.542,3.453 2.542,6.21 0,2.757 -1.042,5.148 -2.542,6.21 l 1.155,1.04 c 1.742,-1.268 2.946,-4.025 2.946,-7.25 z" />
    <path
       id="path4"
       style="overflow:visible;vector-effect:none;fill:#838487;fill-opacity:1;stroke-width:0.5;stroke-linecap:butt;stroke-linejoin:miter;stroke-miterlimit:4;stroke-dasharray:none;stroke-dashoffset:0;stroke-opacity:1;marker:none"
       overflow="visible"
       d="m 284.939,-283 c 0,-2.18 -0.829,-4.085 -2.08,-5.285 l -1.068,0.953 c 0.965,1.026 1.588,2.582 1.588,4.332 0,1.75 -0.623,3.306 -1.588,4.332 l 1.068,0.953 c 1.251,-1.2 2.08,-3.104 2.08,-5.285 z" />
    <path
       id="path6"
       style="overflow:visible;vector-effect:none;fill:#838487;fill-opacity:1;stroke-width:0.5;stroke-linecap:butt;stroke-linejoin:miter;stroke-miterlimit:4;stroke-dasharray:none;stroke-dashoffset:0;stroke-opacity:1;marker:none"
       overflow="visible"
       d="m 281.993,-283 c 0,-1.326 -0.44,-2.542 -1.155,-3.495 l -1.098,0.982 a 4.9,4.9 0 0 1 0,5.026 l 1.098,0.982 A 5.813,5.813 0 0 0 281.993,-283 Z M 273,-285 v 4 h 1.652 l 3.348,3.37 v -10.74 l -3.348,3.37 z" />
  </g>
</svg>
